# xmcd CD database file
#
# Track frame offsets:
#	150
#	13039
#	30821
#	52524
#	87861
#	111259
#	135034
#	155095
#	189215
#	221468
#	252593
#	282658
#	317951
#
# Disc length: 4535 seconds
#
# Revision: 1
# Processed by: cddbd v1.5.2PL0 Copyright (c) Steve Scherf et al.
# Submitted via: CDex 1.51
#
DISCID=a511b50d
DTITLE=Le Tigre (des Platanes) and Etenesh Wassie - Zeraf !
DYEAR=2008
DGENRE=Jazz
TTITLE0=Medinanna Zelessegna
TTITLE1=Muziqawi Silt
TTITLE2=Ambassel Fantay
TTITLE3=Tche Belew
TTITLE4=Yezemed Yebaed
TTITLE5=Bati
TTITLE6=Ney-Ney Weleba
TTITLE7=Awash
TTITLE8=Man Yehon Telleq Sew
TTITLE9=Esti Lenurbet
TTITLE10=Ambassel
TTITLE11=Tezeta
TTITLE12=Woub Abeba
EXTD=YEAR: 2008
EXTT0=
EXTT1=
EXTT2=
EXTT3=
EXTT4=
EXTT5=
EXTT6=
EXTT7=
EXTT8=
EXTT9=
EXTT10=
EXTT11=
EXTT12=
PLAYORDER=
